{"title":"Seventh Moon-AC3-5,1-DVDRip[Eng]2008","uid":5114065,"size":1279666869,"categoryP":"video","categoryS":"movies","magnet":"?xt=urn:btih:256e6844d0d35a42429a7445a9e1c43c10c0a66a&amp;dn=Seventh+Moon-AC3-5%2C1-DVDRip%5BEng%5D2008&amp;tr=udp%3A%2F%2Ftracker.openbittorrent.com%3A80&amp;tr=udp%3A%2F%2Fopen.demonii.com%3A1337&amp;tr=udp%3A%2F%2Ftracker.coppersurfer.tk%3A6969&amp;tr=udp%3A%2F%2Fexodus.desync.com%3A6969","seeders":1,"leechers":1,"uploader":"FatFreddy31","files":-1,"time":1254963663,"description":" &lt;a href=&quot;http://www.imdb.com/title/tt1052040/&quot; rel=&quot;nofollow&quot; target=&quot;_NEW&quot;&gt;http://www.imdb.com/title/tt1052040/&lt;/a&gt;\n &lt;a href=&quot;\nhttp://www.seventhmoon.com/&quot; rel=&quot;nofollow&quot; target=&quot;_NEW&quot;&gt;\nhttp://www.seventhmoon.com/&lt;/a&gt;\n\nHorror\n\nUser Rating:5.2/10 - 171 votes\n\nDirector:Eduardo SÃƒÂ¡nchez\n\nCast:Dennis Chan/Tim Chiou/Amy Smart\n\nPlot:\nAccording to an ancient Chinese myth on the full moon of the seventh lunar month,the gates of hell open and the dead are freed to roam among the living.While honeymooning in China,a young couple takes part in a sacred event that honors these spirits.As night falls, their tour guide abandons them in a desolate field.Now what they thought was a joke is becoming far too real as they fight to survive the night of the Seventh Moon..\n\nInfo:\n\nGeneral\nComplete name                    : Seventh Moon-AC3-5,1-DVDRip[Eng]2008.avi\nFormat                           : AVI\nFormat/Info                      : Audio Video Interleave\nFile size                        : 1.19 GiB\nDuration                         : 1h 26mn\nOverall bit rate                 : 1 967 Kbps\nWriting application              : VirtualDubMod 1.5.4.1 (build 2178/release)\nWriting library                  : VirtualDubMod build 2178/release\n\nVideo\nFormat                           : MPEG-4 Visual\nFormat profile                   : Simple@L3\nFormat settings, BVOP            : No\nFormat settings, QPel            : No\nFormat settings, GMC             : No warppoints\nFormat settings, Matrix          : Default\nCodec ID                         : XVID\nCodec ID/Hint                    : XviD\nDuration                         : 1h 26mn\nBit rate                         : 1 510 Kbps\nWidth                            : 704 pixels\nHeight                           : 400 pixels\nDisplay aspect ratio             : 16/9\nFrame rate                       : 23.976 fps\nResolution                       : 24 bits\nColorimetry                      : 4:2:0\nScan type                        : Progressive\nBits/(Pixel*Frame)               : 0.224\nStream size                      : 937 MiB (77%)\nWriting library                  : XviD 1.1.2 (UTC 2006-11-01)\n\nAudio\nFormat                           : AC-3\nFormat/Info                      : Audio Coding 3\nCodec ID                         : 2000\nDuration                         : 1h 26mn\nBit rate mode                    : Constant\nBit rate                         : 448 Kbps\nChannel(s)                       : 6 channels\nChannel positions                : Front: L C R, Surround: L R, LFE\nSampling rate                    : 48.0 KHz\nStream size                      : 278 MiB (23%)\nAlignment                        : Split accross interleaves\nInterleave, duration             : 42 ms (1.00 video frame)\nInterleave, preload duration     : 500 ms\n\nEnjoy...","torrent":{"xt":"urn:btih:256e6844d0d35a42429a7445a9e1c43c10c0a66a","amp;dn":"Seventh+Moon-AC3-5%2C1-DVDRip%5BEng%5D2008","amp;tr":["udp%3A%2F%2Ftracker.openbittorrent.com%3A80","udp%3A%2F%2Fopen.demonii.com%3A1337","udp%3A%2F%2Ftracker.coppersurfer.tk%3A6969","udp%3A%2F%2Fexodus.desync.com%3A6969"],"infoHash":"256e6844d0d35a42429a7445a9e1c43c10c0a66a","infoHashBuffer":{"type":"Buffer","data":[37,110,104,68,208,211,90,66,66,154,116,69,169,225,196,60,16,192,166,106]},"announce":[],"urlList":[]}}